<!-- Generated by IcoMoon.io -->
<svg version="1.1" xmlns="http://www.w3.org/2000/svg" width="32" height="32" viewBox="0 0 32 32">
<title>avia</title>
<path fill="#808080" d="M3.491 9.319c0 0.646 0.129 0.517 0.776 1.034 0.388 0.129 0.646 0.388 0.905 0.517l4.913 3.103c0.129 0.129 0.259 0.129 0.517 0.259 0.129 0.129 0.259 0.259 0.388 0.388-0.388 0.129-1.681 0.776-2.069 1.034l-1.681 0.776c-0.259 0.129-0.517 0-1.034-0.259l-1.034-0.517c-0.646-0.259-2.327-1.293-2.845-1.293-0.259 0-1.681 0.517-1.681 0.905s0.647 1.552 0.905 1.939c0.259 0.517 0.646 1.293 0.905 1.81-0.259 0.388-0.905 0.776-0.905 1.681 0 2.069 5.56 0.776 6.465 0.517 0.646-0.129 1.293-0.388 1.94-0.517 4.138-1.164 8.275-2.715 12.413-4.008 1.422-0.517 2.845-1.034 4.267-1.681 0.259-0.129 0.517-0.259 0.776-0.388 0.517-0.259 0.905-0.646 1.422-0.905 0.905-0.776 1.939-1.681 1.939-3.103 0-0.259-0.129-0.517-0.259-0.646-0.259-0.259-0.388-0.259-0.776-0.259-0.517 0.129-1.034 0.129-1.552 0.259s-1.034 0.259-1.422 0.517c-0.388 0-1.164 0.388-1.422 0.388-0.388 0-0.905-0.776 0.259-1.164 0.905-0.388 1.939-0.776 2.974-0.776-0.388-0.259-2.069-0.259-2.586-0.259-0.905 0-1.939 0.129-2.715 0.388-2.069 0.388-4.138 1.681-4.396 1.681-0.388 0.129-11.508-2.974-12.671-2.974-0.388 0-0.517 0-0.776 0.259-0.259 0.129-0.517 0.259-0.776 0.388-0.129 0.129-0.388 0.259-0.646 0.388-0.129 0.129-0.517 0.388-0.517 0.517zM17.714 19.404l4.008 4.784c0.646 0.776 0.646 0.517 1.81 0.259 1.552-0.517 1.681-0.517 1.552-1.939-0.259-1.422-0.388-2.845-0.646-4.396 0-0.388 0-0.905-0.259-0.905 0 0-0.776 0.259-0.905 0.259-0.646 0.259-1.164 0.517-1.81 0.646l-3.75 1.293zM3.62 10.612c-0.647-0.388-0.776-0.388-0.776-1.293 0-0.517 0.517-0.776 0.776-0.905v0l0.129-0.129h0.129c0.129-0.129 0.259-0.259 0.517-0.388v0c0.129-0.129 0.259-0.129 0.517-0.259v0l0.129-0.129c0.259-0.129 0.388-0.259 0.517-0.259 0.259-0.129 0.388-0.129 0.646-0.129 0.776 0 4.655 1.034 7.887 1.81 2.457 0.646 4.655 1.293 4.655 1.293s0.129-0.129 0.388-0.259c0.905-0.388 2.457-1.164 4.008-1.552 0.388 0 0.905-0.129 1.293-0.259 0.517 0 1.034-0.129 1.552-0.129v0h0.129c0.776 0 2.198 0 2.845 0.388l1.034 0.646c0.388 0 0.646 0 1.034 0.517 0 0.129 0.129 0.259 0.259 0.517 0 0.129 0.129 0.259 0.129 0.517 0 0.776-0.388 1.552-0.776 2.198-0.388 0.517-1.034 0.905-1.422 1.293-0.259 0.259-0.517 0.388-0.776 0.517s-0.517 0.388-0.776 0.517c-0.129 0-0.129 0.129-0.259 0.129-0.129 0.129-0.388 0.129-0.517 0.259-0.776 0.388-1.422 0.647-2.198 0.905-0.129 0.129-0.259 0.129-0.388 0.259 0 0 0 0 0 0 0.646 0.129 0.646 0.517 0.646 1.034 0 0.129 0 0.259 0.129 0.388 0 0.776 0.129 1.681 0.259 2.586 0.129 0.517 0.259 1.034 0.259 1.681 0.259 1.939 0.129 2.069-1.81 2.586h-0.129c-0.129 0.129-0.259 0.129-0.388 0.129-1.034 0.388-1.164 0.388-2.069-0.517v0l-3.879-4.784-0.517-0.646c-2.198 0.776-4.526 1.422-6.724 2.069-0.388 0.129-0.646 0.259-0.905 0.388-0.259 0-0.646 0.129-0.905 0.129v0h-0.129c-0.517 0.259-2.715 0.776-4.396 0.776-1.552 0-2.845-0.517-2.845-1.81 0-0.905 0.517-1.422 0.905-1.81v0c-0.129-0.129-0.259-0.388-0.388-0.646v0c-0.129-0.259-0.259-0.517-0.388-0.776-0.129-0.129-0.388-0.517-0.646-0.905-0.129-0.517-0.388-1.034-0.388-1.293 0-0.388 0.388-0.776 0.905-1.034s1.164-0.517 1.422-0.517c0.517 0 1.422 0.517 2.327 0.905 0.259 0.259 0.646 0.388 0.776 0.517v0l1.034 0.517h0.129c0.259 0.129 0.388 0.259 0.388 0.259v0l1.681-0.776c0.129-0.129 0.129-0.129 0.259-0.259 0.259-0.129 0.517-0.259 0.905-0.388v0 0l-4.913-3.103-0.517-0.259c-0.129-0.129-0.259-0.259-0.388-0.259-0.129-0.129-0.259-0.129-0.388-0.259v0z"></path>
</svg>
