<!-- Generated by IcoMoon.io -->
<svg version="1.1" xmlns="http://www.w3.org/2000/svg" width="32" height="32" viewBox="0 0 32 32">
<title>media</title>
<path fill="#808080" d="M16 0c-4.4 0-8.4 1.84-11.28 4.72s-4.72 6.88-4.72 11.28c0 4.48 1.84 8.48 4.72 11.36s6.88 4.64 11.28 4.64c4.48 0 8.48-1.84 11.36-4.72s4.64-6.88 4.64-11.28c0-4.4-1.76-8.4-4.64-11.28s-6.88-4.72-11.36-4.72v0zM16 31.28c-8.4 0-15.2-6.88-15.2-15.28s6.8-15.2 15.2-15.2c8.48 0 15.2 6.8 15.2 15.2s-6.72 15.28-15.2 15.28v0zM12.24 9.040c-0.16 0-0.32 0.080-0.48 0.16-0.4 0.24-0.56 0.56-0.56 1.040v11.52c0 0.4 0.16 0.8 0.48 0.96 0.16 0.080 0.4 0.16 0.56 0.16s0.4-0.080 0.56-0.16l10-5.76c0.32-0.16 0.56-0.56 0.56-0.96 0-0.48-0.24-0.8-0.56-1.040l-10-5.76c-0.16-0.080-0.32-0.16-0.56-0.16v0zM12.24 22.16c-0.080 0-0.16-0.080-0.16-0.080-0.080-0.080-0.080-0.16-0.16-0.16 0-0.080-0.080-0.16-0.080-0.16l0.080-11.52c0-0.080 0-0.16 0-0.16 0.080-0.080 0.16-0.16 0.16-0.16 0.080-0.080 0.16-0.080 0.16-0.080s0.080 0 0.16 0.080l10 5.76c0.080 0 0.16 0.080 0.16 0.16 0.080 0 0.080 0.080 0.080 0.16s0 0.16-0.080 0.16c0 0.080-0.080 0.16-0.16 0.16l-10 5.76c0 0-0.080 0.080-0.16 0.080v0z"></path>
</svg>
