<!-- Generated by IcoMoon.io -->
<svg version="1.1" xmlns="http://www.w3.org/2000/svg" width="32" height="32" viewBox="0 0 32 32">
<title>retail</title>
<path fill="#808080" d="M14.58 13.071h3.858v5.461h-4.008l-0.050-0.601-0.451-4.108-0.1-0.752h0.752zM10.422 28.052c0 2.255 2.355 2.706 3.507 1.653 1.202-1.202 0.651-3.607-1.603-3.607-1.002 0-1.904 0.952-1.904 1.954zM10.522 30.106c-0.501-0.451-0.802-1.152-0.802-2.054 0-0.701 0.351-1.353 0.802-1.804 0.501-0.501 1.152-0.802 1.804-0.802 0.952 0 1.653 0.351 2.154 0.852 0.251 0.251 0.401 0.551 0.551 0.852v0c0.1 0.351 0.2 0.701 0.2 1.002 0 0.752-0.301 1.453-0.852 2.004-0.501 0.501-1.253 0.752-1.904 0.752-0.351 0-0.701-0.050-1.052-0.2-0.351-0.1-0.651-0.301-0.902-0.601zM23.048 28.052c0 2.255 2.355 2.706 3.507 1.653 1.202-1.202 0.651-3.607-1.603-3.607-1.002 0-1.904 0.952-1.904 1.954zM23.148 30.106c-0.501-0.451-0.802-1.152-0.802-2.054 0-0.701 0.351-1.353 0.802-1.804v0 0c0.501-0.501 1.152-0.802 1.804-0.802 0.952 0 1.653 0.351 2.154 0.852 0.251 0.251 0.451 0.551 0.551 0.852v0c0.15 0.351 0.2 0.701 0.2 1.002 0 0.752-0.301 1.453-0.852 2.004-0.501 0.501-1.202 0.752-1.904 0.752-0.351 0-0.701-0.050-1.052-0.2-0.351-0.1-0.651-0.301-0.902-0.601zM22.547 18.532h-3.407v-5.461h4.61l-0.1 0.752-0.351 3.056-0.1 1.052-0.050 0.601h-0.601zM27.206 18.532h-3.307l0.1-0.752 0.451-4.108 0.050-0.601h4.76l-0.2 0.852-1.202 4.108-0.1 0.501h-0.551zM9.169 13.071h3.908l0.050 0.601 0.451 4.109 0.1 0.752h-3.958l-0.15-0.501c-0.301-1.152-0.601-2.355-0.902-3.557l-0.15-0.551-0.2-0.852h0.852zM23.298 12.37h-4.159v-5.461h5.361l-0.1 0.701-0.451 4.159-0.050 0.601h-0.601zM28.91 12.37h-4.309l0.1-0.752 0.501-4.159 0.1-0.551h5.511l-0.2 0.802-1.052 4.159-0.1 0.501h-0.551zM7.616 6.908h4.71l0.050 0.601c0.050 0.401 0.1 0.902 0.15 1.403v0c0.1 0.852 0.2 1.754 0.301 2.706l0.050 0.752h-4.61l-0.1-0.501-1.202-4.109-0.2-0.852h0.852zM13.778 6.908h4.66v5.461h-4.76l-0.050-0.601-0.551-4.109-0.1-0.752h0.802zM0 2.299c0 0.401 0.351 0.501 0.651 0.501 0.2 0 0.301 0 0.351-0.050v0c0.15 0 0.301 0 0.401 0h3.457l0.15 0.401c0.15 0.251 0.251 0.752 0.351 1.152v0c0 0.15 0.050 0.251 0.050 0.351v0l4.509 18.137 0.351 1.353c0.050 0.1 0.1 0.15 0.15 0.2s0.1 0.050 0.2 0.050h16.935c0.050 0 0.15-0.050 0.15-0.15 0.050-0.050 0.050-0.1 0.050-0.2 0-0.050 0-0.15-0.050-0.2 0-0.1-0.1-0.15-0.15-0.15h-16.634l-0.15-0.501-0.701-3.106-0.2-0.852h18.639c0.2-0.752 0.501-1.804 0.802-2.956 1.002-3.607 2.355-8.367 2.355-9.77 0-0.301-0.401-0.351-0.752-0.351-0.2 0-0.351 0-0.451 0v0c-0.2 0-0.351 0-0.451 0h-23.298l-0.2-0.351c-0.2-0.401-0.301-1.002-0.451-1.704-0.2-0.852-0.401-1.854-0.551-1.954v0c-0.050-0.050-0.1-0.050-0.15-0.1 0 0 0 0 0 0v0 0h-5.111c-0.050 0-0.1 0.050-0.15 0.1s-0.1 0.1-0.1 0.15zM5.361 2.048c0 0 0.050 0 0 0v0z"></path>
</svg>
