<!-- Generated by IcoMoon.io -->
<svg version="1.1" xmlns="http://www.w3.org/2000/svg" width="32" height="32" viewBox="0 0 32 32">
<title>taxi</title>
<path fill="#808080" d="M14.65 18.669h3.122c0.961 0 1.681 0.24 1.921 1.041 0.4 1.041-0.4 1.841-0.961 1.841h-5.043c-0.56 0-1.281-0.801-0.961-1.761 0.16-0.881 0.881-1.121 1.921-1.121zM24.736 21.55c-1.041 0-1.601 0.16-2.241-0.72-0.24-0.4-0.4-0.881-0.32-1.441 0.4-2.322 3.602-2.241 4.003-0.080 0.24 1.281-0.72 2.241-1.441 2.241zM8.806 21.55c-1.121 0-1.601 0.16-2.241-0.72-0.24-0.4-0.4-0.881-0.32-1.441 0.4-2.322 3.602-2.241 4.003-0.080 0.16 1.281-0.801 2.241-1.441 2.241zM11.047 6.741h10.327c0.64 0 1.201 0.32 1.601 0.64 0.4 0.4 0.56 0.72 0.72 1.441 0.24 1.201 0.48 2.562 0.801 3.762h-16.491c0.24-1.201 0.48-2.482 0.72-3.682 0.16-0.801 0.24-1.041 0.72-1.521 0.32-0.32 0.961-0.64 1.601-0.64zM13.209 5.38c-0.080-0.48-0.080-0.961 0-1.441h1.121c0-1.441-0.32-1.201 1.281-1.201 0.56 0-0.16 1.201 0.48 1.201h0.32c0.56 0-0.16-1.201 0.4-1.201 1.601 0 1.361-0.24 1.361 1.201h1.041c0.16 0.48 0.16 0.961 0 1.441-0.24 0-1.201 0.080-1.361 0-0.48-0.32 0.48-1.121-0.64-1.121-0.56 0 0.080 1.121-0.48 1.121h-1.041c-0.56 0 0.080-1.121-0.48-1.121-1.121 0-0.24 0.64-0.64 1.041-0.16 0.24-1.041 0.080-1.361 0.080zM10.487 3.539v0.801c-1.601 0-2.241-0.16-3.602 0.881s-1.521 3.282-1.841 5.043c-0.24 0.961-0.4 1.841-0.56 2.882-0.24 1.201-0.16 0.881-1.361 2.081-1.681 1.601-1.441 2.882-1.361 5.444 0 1.121 0 0.64-0.48 1.281-0.64 0.881-0.48 1.921-0.48 3.282 0 0.32 0.080 0.64 0.24 0.881 0.080 0.24 0.32 0.56 0.4 0.72 0.801 0.801 1.601 0.72 2.562 0.72 0 3.442-0.48 2.882 4.003 2.882 1.121 0 0.801-1.601 0.801-2.882h14.81c0 3.442-0.48 2.882 4.003 2.882 1.041 0 0.801-1.601 0.801-2.882 0.961 0 1.761 0.080 2.562-0.72 0.881-1.041 0.64-2.081 0.64-3.682 0-0.4-0.24-0.961-0.48-1.201-0.4-0.64-0.4-0.16-0.4-1.201 0-1.681 0.16-3.282-0.64-4.563-0.24-0.56-1.201-1.361-1.601-1.841-0.48-0.4-0.4-0.48-0.48-1.201-0.32-1.441-1.041-6.004-1.681-6.965-0.64-1.041-1.841-1.841-3.282-1.841h-1.121v-0.801c0-0.801-0.801-1.601-1.601-1.601h-8.165c-0.881 0-1.681 0.801-1.681 1.601zM17.772 19.389h-3.122c-0.4 0-0.72 0.080-0.881 0.16s-0.24 0.24-0.32 0.4c0 0.080 0 0.16 0 0.24 0 0.16 0 0.32 0.080 0.48 0.080 0.080 0.16 0.080 0.16 0.16h5.043c0.080-0.080 0.080-0.080 0.16-0.16 0.080-0.16 0.16-0.32 0.16-0.48 0-0.080-0.080-0.16-0.080-0.24-0.080-0.16-0.16-0.32-0.32-0.4s-0.48-0.16-0.881-0.16zM24.336 20.83c0.16 0 0.4 0 0.4 0 0.16-0.080 0.32-0.16 0.4-0.32 0.16-0.24 0.32-0.48 0.32-0.801 0-0.080 0-0.16-0.080-0.24-0.080-0.4-0.32-0.72-0.56-0.881-0.24-0.080-0.4-0.16-0.64-0.16-0.16 0-0.4 0.080-0.56 0.16-0.32 0.16-0.56 0.48-0.64 0.961 0 0.16 0 0.32 0 0.4v0c0.080 0.16 0.080 0.32 0.16 0.4 0.32 0.48 0.64 0.48 1.201 0.48zM8.325 20.83c0.24 0 0.48 0 0.48 0 0.080-0.080 0.24-0.16 0.4-0.32 0.16-0.24 0.24-0.48 0.24-0.801 0-0.080 0-0.16 0-0.24-0.080-0.4-0.32-0.72-0.64-0.881-0.16-0.080-0.4-0.16-0.56-0.16-0.24 0-0.4 0.080-0.64 0.16-0.24 0.16-0.48 0.48-0.56 0.961-0.080 0.16-0.080 0.32 0 0.4v0c0 0.16 0.080 0.32 0.16 0.4 0.32 0.48 0.64 0.48 1.121 0.48zM21.374 7.541h-10.327c-0.24 0-0.4 0.080-0.56 0.080v0c-0.24 0.080-0.4 0.24-0.48 0.32-0.16 0.16-0.32 0.32-0.32 0.4v0c-0.080 0.16-0.16 0.4-0.24 0.72v0l-0.16 0.881c-0.080 0.64-0.24 1.201-0.32 1.841h14.57c-0.16-0.56-0.24-1.201-0.4-1.761 0-0.32-0.080-0.64-0.16-1.041-0.080-0.32-0.16-0.48-0.24-0.64v0c-0.080-0.16-0.16-0.24-0.32-0.4-0.080-0.16-0.24-0.24-0.48-0.32v0c-0.16 0-0.32-0.080-0.56-0.080zM6.404 4.579c1.361-0.961 2.081-1.041 3.362-1.041 0-0.64 0.24-1.201 0.72-1.681 0.4-0.4 1.041-0.72 1.681-0.72h8.165c0.56 0 1.201 0.32 1.601 0.72 0.48 0.48 0.801 1.041 0.801 1.681h0.32c0.881 0 1.601 0.24 2.241 0.56 0.72 0.4 1.361 1.041 1.761 1.681 0.56 0.961 1.121 4.163 1.441 6.084 0.080 0.4 0.16 0.72 0.24 1.121v0c0 0.16 0.080 0.32 0.080 0.4v0c0 0.24 0 0.24 0.24 0.48l0.080 0.080c0.48 0.48 1.361 1.281 1.681 1.841 0.72 1.281 0.72 2.722 0.64 4.243 0 0.24 0 0.48 0 0.72 0 0.4-0.16 0.16-0.080 0.32v0c0.080 0.080 0.24 0.16 0.4 0.4s0.32 0.56 0.48 0.881c0.080 0.24 0.16 0.56 0.16 0.801 0 0.4 0 0.64 0 0.801 0.080 1.361 0.080 2.322-0.881 3.362-0.801 0.881-1.521 1.041-2.322 1.041 0 0.24 0 0.4 0 0.56 0 1.281-0.24 2.322-1.601 2.322-0.801 0-1.201 0-1.601 0-1.361 0-2.001 0-2.562-0.32-0.64-0.48-0.64-1.121-0.64-2.482v-0.080h-13.209c0 0.24 0 0.4 0 0.56 0 1.281-0.24 2.322-1.601 2.322-0.72 0-1.201 0-1.521 0-1.361 0-2.081 0-2.562-0.32-0.72-0.48-0.72-1.121-0.64-2.482v-0.080c-0.881 0-1.601-0.16-2.402-1.041-0.080-0.080-0.16-0.24-0.24-0.4-0.16-0.16-0.24-0.32-0.32-0.4-0.080-0.24-0.16-0.4-0.24-0.64 0-0.24-0.080-0.4-0.080-0.64 0-0.4 0-0.56 0-0.72 0-1.121-0.080-2.161 0.64-3.042 0.16-0.16 0.24-0.32 0.32-0.4 0 0 0-0.080 0-0.16v-0.24c0-0.32 0-0.64 0-0.881-0.080-2.161-0.080-3.442 1.601-5.123 0.24-0.24 0.48-0.4 0.56-0.56 0.24-0.24 0.32-0.32 0.4-0.4v0c0-0.080 0.080-0.24 0.16-0.56v-0.16l0.56-2.882c0.080-0.32 0.16-0.64 0.16-0.881 0.32-1.681 0.64-3.602 2.001-4.643z"></path>
<path fill="#808080" d="M3.362 24.512c-0.24 0-0.4-0.16-0.4-0.4 0-0.16 0.16-0.4 0.4-0.4h25.697c0.24 0 0.4 0.24 0.4 0.4 0 0.24-0.16 0.4-0.4 0.4h-25.697z"></path>
</svg>
