<!-- Generated by IcoMoon.io -->
<svg version="1.1" xmlns="http://www.w3.org/2000/svg" width="32" height="32" viewBox="0 0 32 32">
<title>banksbanks</title>
<path fill="#808080" d="M1.462 9.769v4.077h1.846v11.077c0 0.538 0.462 1.231 1.077 1.231h2.077c0.692 0 1.077-0.692 1.077-1.231v-11.154h16.846v11.154c0 0.385 0.154 0.615 0.308 0.846 0.231 0.231 0.385 0.462 0.769 0.462h2.077c0.692 0 1.077-0.692 1.077-1.308v-11.154h2.154v-4c-0.308-0.077-4.077-2.538-4.538-2.846-1.538-0.923-9.923-6.154-10.077-6.154-0.231-0.077-8.615 5.308-10 6.154-0.308 0.231-0.615 0.385-0.923 0.615-0.615 0.385-1.231 0.769-1.846 1.154l-1.923 1.077zM0.769 13.846v-4.538l0.385-0.231 1.846-1.154c0.308-0.231 0.538-0.385 0.769-0.462 0.385-0.154 0.692-0.308 1-0.538l0.077-0.077c0.308-0.154 0.538-0.385 0.923-0.538 0.462-0.308 1.769-1.077 3.154-2 3.077-1.923 6.846-4.308 7.308-4.308 0.308 0 3.615 2.154 6.538 3.923 1.769 1.077 3.231 2 3.846 2.385v0c0.154 0.077 0.462 0.308 0.923 0.615 1.308 0.846 3.308 2.077 3.385 2.154l0.615 0.154v5.308h-2.077v10.385c0 0.462-0.154 1-0.538 1.385-0.308 0.385-0.769 0.615-1.308 0.615h-2.077c-0.385 0-0.615-0.077-0.846-0.231-0.231-0.077-0.385-0.231-0.462-0.462s-0.308-0.385-0.385-0.615v0c-0.077-0.231-0.154-0.462-0.154-0.692v-10.385h-15.385v10.385c0 0.462-0.231 1-0.538 1.385s-0.769 0.615-1.308 0.615h-2c-0.538 0-1-0.231-1.308-0.615-0.385-0.385-0.538-0.923-0.538-1.385v-10.308h-1.846v-0.769z"></path>
<path fill="#808080" d="M0.769 29.385v0.615c0 0.615 0.615 1.231 1.231 1.231h28.308c0.615 0 1.231-0.615 1.231-1.231v-0.615c0-0.615-0.615-1.308-1.231-1.308h-28.308c-0.615 0-1.231 0.692-1.231 1.308zM0 30v-0.615c0-0.538 0.231-1 0.615-1.385s0.846-0.615 1.385-0.615h28.308c0.538 0 1 0.231 1.385 0.615s0.615 0.846 0.615 1.385v0.615c0 0.462-0.231 1-0.615 1.385s-0.846 0.615-1.385 0.615h-28.308c-0.538 0-1-0.231-1.385-0.615s-0.615-0.846-0.615-1.385z"></path>
<path fill="#808080" d="M15.923 18.692h0.462c0.462 0 1 0.615 1 1.077 0 0.538 0 1.308-0.846 1.462 0 1 0.231 1.769-0.538 1.769-0.308 0-0.462-0.385-0.462-0.615 0-0.385 0-0.769 0-1.154-1.385-0.769-0.538-2.538 0.385-2.538zM11.538 17.231v6.692c0 0.769 0.615 1.462 1.154 1.462h6.923c0.538 0 1.154-0.692 1.154-1.462v-6.692c0-0.385-0.154-0.692-0.308-0.923-0.154-0.154-0.538-0.462-0.846-0.462h-6.923c-0.308 0-0.692 0.308-0.846 0.462s-0.308 0.538-0.308 0.923zM16.385 19.462h-0.462c0 0-0.077 0-0.154 0.077s-0.077 0.231-0.154 0.308c0 0.077 0 0.231 0 0.308 0 0.154 0.154 0.308 0.385 0.385v0l0.462-0.077c0.308 0 0.308-0.462 0.308-0.692v0 0c0 0-0.077-0.077-0.154-0.154s-0.154-0.154-0.231-0.154zM10.769 23.923v-6.692c0-0.308 0.077-0.538 0.154-0.769 0.077-0.308 0.231-0.538 0.385-0.692s0.385-0.385 0.615-0.462v0c0.231-0.154 0.462-0.231 0.769-0.231h6.923c0.231 0 0.538 0.077 0.769 0.231s0.462 0.385 0.615 0.538c0.154 0.154 0.308 0.385 0.385 0.615s0.154 0.462 0.154 0.769v6.692c0 0.538-0.231 1.077-0.538 1.462-0.385 0.462-0.923 0.692-1.385 0.692h-6.923c-0.462 0-1-0.308-1.385-0.692v0c-0.308-0.385-0.538-0.923-0.538-1.462z"></path>
<path fill="#808080" d="M4 11.923c-0.154 0-0.385-0.154-0.385-0.385s0.154-0.385 0.385-0.385h24.308c0.231 0 0.385 0.154 0.385 0.385 0 0.154-0.154 0.385-0.385 0.385h-24.308z"></path>
</svg>
