<!-- Generated by IcoMoon.io -->
<svg version="1.1" xmlns="http://www.w3.org/2000/svg" width="32" height="32" viewBox="0 0 32 32">
<title>fitness</title>
<path fill="#808080" d="M19.53 17.654c0.372 0.62 1.364 1.488 1.364 1.736s-0.186 0.31-0.372 0.31c-0.248 0-1.178-1.302-1.55-1.55-0.31 0.186-0.558 0.62-0.992 0.868 0.124 0.186 0.186 0.248 0.372 0.372l0.682 0.868c0.62 0.62 0.062 1.178-0.434 0.434l-1.116-1.178-1.054 0.806c0.31 0.434 1.178 1.24 1.426 1.736-0.434 0.806-0.744 0-1.55-0.93-0.248-0.248-0.248-0.186-0.434-0.496-1.302 0.682-2.232 0.744-3.72 1.054-0.682 0.124-1.488 0.186-2.046 0.434-0.372 0.248-0.992 0.806-0.992 1.426 0 0.434 3.72 1.054 4.278 1.116 2.108 0.31 6.2 0.62 8.37-0.124 2.294-0.744 4.898-2.418 7.13-1.798 0.558 0.186 0.744 0.434 1.178 0.682 0-1.116 0-2.294 0-3.472 0-0.62 0-2.542-0.992-2.542-0.434 0-0.682 0.248-0.992 0.434-1.364 0.744-2.728 0.248-4.030-0.558-0.682-0.434-1.86-1.054-2.728-1.054-0.806 0-1.054 0.682-1.426 0.992-0.124 0.186-0.248 0.248-0.372 0.434zM1.178 21.684c0.93 1.426 3.968 0.496 5.084 0.062 0.496-0.248 0.806-0.434 1.364-0.62l3.596-2.17c0.248-0.186 0.372-0.31 0.558-0.434l7.254-4.402c0.496-0.434 1.116-0.93 1.55-1.426 0.186-0.248 0.124-0.372 0-0.62s-0.248-0.434-0.434-0.62c-0.744-0.93-2.542-0.62-3.348 0.062-0.682 0.496-0.806 0.682-1.364 1.24-0.31 0.31-0.558 0.62-0.868 0.992-1.178 1.426-1.798 2.542-3.472 3.658-0.744 0.434-1.488 0.868-2.232 1.302-1.24 0.682-3.596 1.798-4.898 2.232-0.744 0.248-2.108 0.744-2.79 0.744zM19.468 25.776c-3.41 0-6.386 0-9.61-0.93-0.372-0.062-0.62-0.186-0.93-0.248 0 0.496 0.124 0.62 0.372 0.868 1.674 1.674 5.084 1.86 7.44 1.86 1.302 0 2.418-0.186 3.596-0.248 3.038-0.186 6.882 0.372 9.858-0.62 0.124-0.062 0.372 0.062 0.372-0.682 0-0.31-0.062-0.682-0.186-0.93-0.186-0.372-0.248-0.434-0.558-0.682-0.558-0.372-1.054-0.62-1.922-0.62-1.922 0-4.278 1.364-6.138 1.86-0.682 0.248-1.426 0.372-2.294 0.372zM6.882 10.4c0.806 0.434 2.108 0.496 2.108 0.992 0 0.744-1.55-0.248-2.294-0.31 0 0.248-0.31 1.116-0.434 1.302l1.736 0.558c0.248 0.124 0.31 0.124 0.372 0.434-0.372 0.372-0.434 0.248-1.116 0-0.31-0.124-0.868-0.248-1.178-0.434-0.186 0.434-0.372 0.93-0.558 1.302 0.31 0.124 0.806 0.248 1.116 0.372 0.248 0.062 1.054 0.31 1.054 0.496 0 0.744-0.682 0.31-1.426 0.062-0.248-0.062-0.744-0.31-1.054-0.31-0.248 0.496-0.62 0.992-1.054 1.364l-1.612 1.364c-1.178 1.054-2.17 1.302-1.736 3.162 0.682 0 2.232-0.434 2.852-0.682 0.434-0.124 0.868-0.31 1.302-0.434 1.55-0.62 3.224-1.488 4.65-2.356 1.24-0.744 0.93-0.496 2.108-1.426 0.372-0.248 0.93-0.992 1.24-1.364 1.364-1.736 2.852-4.402 5.332-4.402 0.372 0 0.31 0.062 0.62 0.062l-1.984-3.472c-0.31-0.496-0.744-1.24-1.426-1.302-1.178-0.248-0.62 1.86-3.1 2.294-1.488 0.248-3.906-0.062-4.774 0.744-0.682 0.62-0.372 1.302-0.744 1.984zM18.6 17.592l0.31-0.186 0.062-0.062c0.124-0.186 0.248-0.31 0.372-0.434 0.062-0.062 0.062-0.062 0.124-0.124s0.124-0.124 0.186-0.186c0.372-0.434 0.744-0.992 1.674-0.992 0.496 0 0.992 0.124 1.426 0.31 0.62 0.248 1.24 0.558 1.674 0.806 0.558 0.372 1.178 0.682 1.736 0.806s1.116 0.062 1.612-0.248c0.062 0 0.124-0.062 0.186-0.124 0.31-0.186 0.558-0.372 1.116-0.372 1.612 0 1.612 2.356 1.612 3.162v0 4.154c0.124 0.124 0.186 0.31 0.248 0.496v0c0.062 0.186 0.124 0.372 0.186 0.558 0.062 0.248 0.062 0.434 0.062 0.62 0 1.116-0.496 1.24-0.806 1.302-2.108 0.682-4.65 0.682-7.006 0.62-1.054 0-2.046-0.062-3.038 0-0.434 0.062-0.868 0.062-1.364 0.124-0.682 0.062-1.426 0.186-2.232 0.186-1.178 0-2.666-0.062-4.092-0.31-1.488-0.31-2.852-0.806-3.782-1.736-0.186-0.186-0.31-0.31-0.434-0.558s-0.186-0.434-0.186-0.806v-0.806l0.31 0.062c-0.062-0.124-0.062-0.186-0.062-0.31 0-0.434 0.124-0.806 0.372-1.178 0.31-0.372 0.682-0.682 0.992-0.806 0.434-0.248 0.992-0.31 1.55-0.372 0.248-0.062 0.434-0.062 0.62-0.124 0.31-0.062 0.558-0.124 0.806-0.124 0.992-0.186 1.798-0.372 2.79-0.868l0.248-0.124 0.186-0.186 1.054-0.806h0.062l-0.062-0.124 0.496-0.372c0.186-0.062 0.31-0.248 0.496-0.372 0.124-0.186 0.31-0.31 0.496-0.496zM2.976 23.11c-0.93 0-1.798-0.31-2.356-1.054l-0.62-0.992h0.248l-0.062-0.186c-0.434-1.86 0.31-2.418 1.302-3.224 0.186-0.124 0.372-0.31 0.62-0.496v0l1.612-1.426c0.186-0.186 0.31-0.31 0.496-0.496 0.186-0.248 0.31-0.434 0.434-0.682l0.186-0.372h0.062l0.062-0.186c0.062-0.186 0.186-0.372 0.248-0.558v0c0.062-0.248 0.124-0.434 0.248-0.682h-0.062l0.31-0.682c0.062-0.062 0.124-0.372 0.248-0.62 0.062-0.186 0.124-0.372 0.124-0.434v-0.62h0.124l0.124-0.248c0.062-0.186 0.124-0.434 0.124-0.62 0.124-0.558 0.186-1.054 0.744-1.612 0.744-0.682 2.108-0.682 3.472-0.744 0.558-0.062 1.178-0.062 1.612-0.124 1.116-0.186 1.488-0.868 1.736-1.302 0.372-0.682 0.682-1.178 1.612-1.054 0.93 0.186 1.488 0.992 1.86 1.612v0 0.062l1.984 3.472 0.372 0.558c0.31 0.186 0.558 0.372 0.806 0.62 0.124 0.124 0.186 0.248 0.248 0.372v0c0.124 0.124 0.186 0.248 0.248 0.372v0 0c0.31 0.558 0.434 0.744-0.062 1.302-0.248 0.31-0.496 0.558-0.806 0.806-0.31 0.31-0.558 0.496-0.806 0.744h-0.124l-7.192 4.464c-0.124 0.062-0.186 0.124-0.248 0.186-0.124 0.062-0.186 0.124-0.31 0.186v0l-3.658 2.232h-0.062l-0.062 0.062c-0.186 0.062-0.372 0.186-0.558 0.248-0.248 0.124-0.496 0.186-0.744 0.31-0.744 0.31-2.232 0.806-3.534 0.806zM30.318 27.078v0 0 0zM7.812 13.5v0 0 0 0 0zM7.812 13.5v0 0 0zM7.812 13.5v0 0c0 0.062 0 0 0 0z"></path>
</svg>
