<!-- Generated by IcoMoon.io -->
<svg version="1.1" xmlns="http://www.w3.org/2000/svg" width="32" height="32" viewBox="0 0 32 32">
<title>medecine</title>
<path fill="#808080" d="M8.421 21.053v-3.789c0-0.842 0.632-1.263 1.474-1.263h2.947v-3.158c0-0.632 0.632-1.263 1.474-1.263h3.368c0.842 0 1.474 0.632 1.474 1.263v3.158h2.947c0.421 0 0.842 0.211 1.053 0.421 0.211 0 0.421 0.421 0.421 0.842v3.789c0 0.842-0.632 1.263-1.474 1.263h-2.947v3.158c0 0.632-0.632 1.263-1.474 1.263h-3.368c-0.842 0-1.474-0.632-1.474-1.263v-3.158h-2.947c-0.842 0-1.474-0.421-1.474-1.263zM11.579 5.474c0-0.421 0.211-0.842 0.421-1.053 0 0 0.421-0.421 0.842-0.421h6.316c0.632 0 1.263 0.632 1.263 1.474v1.684h-8.842v-1.684zM8.421 3.368v3.789c-1.053 0-5.053-0.211-5.895 0-1.263 0.632-1.684 1.684-1.684 2.947v18.316c0 1.053 0.421 2.105 1.684 2.526 0.211 0.211 0.842 0.211 1.263 0.211h24.421c0.421 0 1.053 0 1.263-0.211 1.263-0.421 1.684-1.474 1.684-2.737v-18.105c0-0.632 0-1.263-0.421-1.895-0.632-0.842-1.263-1.053-2.526-1.053h-4.632v-3.789c0-1.474-1.263-2.526-2.737-2.526h-9.684c-1.474 0-2.737 1.053-2.737 2.526zM9.263 17.263v3.789c0 0.211 0 0.211 0.211 0.211 0 0.211 0.211 0.211 0.421 0.211h3.789v4c0 0 0 0.211 0.211 0.211 0 0.211 0.211 0.211 0.421 0.211h3.368c0.211 0 0.421 0 0.421-0.211 0.211 0 0.211-0.211 0.211-0.211v-4h3.789c0.211 0 0.421 0 0.421-0.211 0.211 0 0.211 0 0.211-0.211v-3.789c0 0 0 0 0-0.211 0 0-0.211 0-0.211 0v0c0-0.211 0-0.211-0.211-0.211v0c0 0-0.211 0-0.211 0h-3.789v-4c0 0 0-0.211-0.211-0.211 0-0.211-0.211-0.211-0.421-0.211h-3.368c-0.211 0-0.421 0-0.421 0.211-0.211 0-0.211 0.211-0.211 0.211v4h-3.789c-0.211 0-0.421 0-0.421 0.211-0.211 0-0.211 0-0.211 0.211zM12.421 5.263c0 0 0 0 0 0.211v0.842h7.158v-0.842c0-0.211 0-0.421-0.211-0.421 0-0.211 0-0.211-0.211-0.211h-6.316c-0.211 0-0.211 0-0.211 0s0 0.211-0.211 0.211v0c0 0 0 0 0 0.211zM7.579 6.316v-2.947c0-1.053 0.421-1.895 1.053-2.526 0.632-0.421 1.684-0.842 2.526-0.842h9.684c0.842 0 1.895 0.421 2.526 0.842 0.632 0.632 1.053 1.474 1.053 2.526v2.947h3.789c0.632 0 1.263 0 1.895 0.421 0.421 0.211 0.842 0.632 1.263 1.053 0.211 0.421 0.421 0.842 0.421 1.263 0.211 0.211 0.211 0.632 0.211 1.053v18.105c0 0.842-0.211 1.474-0.632 2.105-0.211 0.632-0.842 1.263-1.474 1.474-0.421 0-0.632 0.211-0.842 0.211s-0.632 0-0.842 0h-24.421c-0.211 0-0.632 0-0.842 0s-0.421-0.211-0.842-0.211-1.263-0.842-1.474-1.263c-0.421-0.632-0.632-1.474-0.632-2.105v-18.316c0-0.842 0.211-1.684 0.632-2.316s0.842-1.053 1.684-1.263c0.842-0.211 3.579-0.211 5.263-0.211v0z"></path>
</svg>
